<?xml version="1.0" encoding="UTF-8"?><svg xmlns="http://www.w3.org/2000/svg" viewBox="0 0 170.03 170.03"><g id="_英文"><path d="M34.34,100.18v.79h-2.58v-3.5h2.55v.79h-1.71v.58h1.34v.76h-1.34v.6h1.74Z"/><path d="M41.04,97.46v3.5h-.79l-1.45-1.87-.07-.13v.13s0,1.87,0,1.87h-.84v-3.5h.79l1.45,1.85.07.13v-.13s0-1.85,0-1.85h.84Z"/><path d="M46.18,97.46c1,0,1.81.72,1.81,1.77s-.81,1.74-1.81,1.74h-1.53v-3.5h1.53ZM46.18,100.18c.5,0,.94-.35.94-.95s-.44-.98-.94-.98h-.69v1.93h.69Z"/><path d="M52.22,98.25v.69h1.29v.76h-1.29v1.28h-.84v-3.5h2.5v.79h-1.66Z"/><path d="M57.26,100.97v-3.5h.84v3.5h-.84Z"/><path d="M64.28,100.18v.79h-2.58v-3.5h2.55v.79h-1.71v.58h1.34v.76h-1.34v.6h1.74Z"/><path d="M70.34,100.18v.79h-2.5v-3.5h.84v2.72h1.66Z"/><path d="M75.19,97.46c1,0,1.81.72,1.81,1.77s-.81,1.74-1.81,1.74h-1.53v-3.5h1.53ZM75.19,100.18c.5,0,.94-.35.94-.95s-.44-.98-.94-.98h-.69v1.93h.69Z"/><path d="M84.4,100.97v-3.5h.84v3.5h-.84Z"/><path d="M91.99,97.46v3.5h-.79l-1.45-1.87-.07-.13v.13s0,1.87,0,1.87h-.84v-3.5h.79l1.45,1.85.07.13v-.13s0-1.85,0-1.85h.84Z"/><path d="M97.12,97.46c1,0,1.81.72,1.81,1.77s-.81,1.74-1.81,1.74h-1.53v-3.5h1.53ZM97.12,100.18c.5,0,.94-.35.94-.95s-.43-.98-.94-.98h-.69v1.93h.69Z"/><path d="M105.41,97.46v1.95c0,1.05-.65,1.63-1.58,1.63s-1.58-.58-1.58-1.63v-1.95h.84v1.98c0,.5.28.81.74.81s.74-.31.74-.81v-1.98h.84Z"/><path d="M110.66,98.57c-.08-.31-.34-.46-.59-.46s-.42.11-.42.28c0,.21.35.3.78.46.52.19,1.07.42,1.07,1.09s-.55,1.1-1.37,1.1c-.73,0-1.25-.41-1.48-1.06l.82-.22c.08.28.36.52.72.52.27,0,.44-.13.44-.29,0-.25-.43-.36-.93-.55-.42-.16-.91-.39-.91-1.01,0-.55.55-1.04,1.31-1.04.67,0,1.2.41,1.37.96l-.81.22Z"/><path d="M117.46,97.46v.79h-1.07v2.72h-.84v-2.72h-1.05v-.79h2.96Z"/><path d="M122.67,100.97l-.7-1.14h-.42v1.14h-.84v-3.5h1.31c.88,0,1.41.46,1.41,1.18,0,.48-.23.84-.64,1.03l.81,1.3h-.93ZM121.56,99.04h.58c.3,0,.42-.21.42-.4s-.12-.4-.42-.4h-.58v.79Z"/><path d="M126.96,100.97v-3.5h.84v3.5h-.84Z"/><path d="M133.99,100.18v.79h-2.58v-3.5h2.55v.79h-1.71v.58h1.34v.76h-1.34v.6h1.74Z"/><path d="M139.12,98.57c-.08-.31-.34-.46-.59-.46s-.42.11-.42.28c0,.21.35.3.78.46.52.19,1.07.42,1.07,1.09s-.55,1.1-1.37,1.1c-.73,0-1.25-.41-1.48-1.06l.82-.22c.08.28.36.52.72.52.27,0,.44-.13.44-.29,0-.25-.43-.36-.93-.55-.42-.16-.91-.39-.91-1.01,0-.55.55-1.04,1.31-1.04.67,0,1.2.41,1.37.96l-.81.22Z"/><rect x="145.46" y="98.63" width="8.3" height=".67"/><rect x="18.77" y="98.63" width="8.3" height=".67"/></g><g id="_汉字"><g id="_终"><path d="M49.98,69.91h-16.11v3.49h12.62v2.31h-12.62v9.15h3.49v-5.83h9.13v5.82h16.77v-3.3h-13.28v-2.52h9.81l3.47-3.47v-5.64h-13.28ZM59.78,75.7h-9.8v-2.31h9.8v2.31Z"/><rect x="33.87" y="86.68" width="29.39" height="3.49"/><rect x="33.87" y="91.83" width="29.39" height="3.49"/><polygon points="23.74 81.86 18.92 81.86 18.92 85.18 18.92 95.32 22.25 95.32 22.25 85.18 23.74 85.18 23.74 95.32 27.23 95.32 27.23 85.18 28.71 85.18 28.71 95.32 32.04 95.32 32.04 85.18 32.04 81.86 27.23 81.86 27.23 80.2 23.74 80.2 23.74 81.86"/><path d="M32.05,74.89v-3.32h-2.32v-1.66h-8.47v1.66h-2.32v3.33h2.32v1.83h-2.33v3.48h4.82v-1.65h3.49v1.49h0v.16h4.82v-3.48h-2.32v-1.83h2.32ZM27.23,74.85v.21h-3.49v-1.84h3.49v1.62Z"/></g><g id="_末"><rect x="64.76" y="71.57" width="43.49" height="3.32"/><polygon points="104.94 76.72 104.94 78.54 68.08 78.54 68.08 76.72 64.76 76.72 64.76 78.54 64.76 81.86 108.26 81.86 108.26 78.54 108.26 76.72 104.94 76.72"/><rect x="84.85" y="69.91" width="3.32" height="25.41"/><polygon points="64.76 83.68 64.76 87 64.76 95.32 68.08 95.32 68.08 87 104.94 87 104.94 95.32 108.26 95.32 108.26 87 108.26 83.68 64.76 83.68"/></g><g id="_地"><path d="M144.3,75.04v-5.14h-19.26v3.47h15.94v1.67h-15.94v16.88h0v3.39h28.72v-3.49h-25.41v-13.29h6.31v11.64h9.63v-11.64h6.14v11.63h3.32v-15.13h-9.46ZM140.97,87.01h-2.99v-8.48h2.99v8.48Z"/><polygon points="123.54 78.53 123.54 75.05 118.56 75.05 118.56 69.91 115.07 69.91 115.07 75.05 110.08 75.05 110.08 78.53 115.07 78.53 115.07 91.83 110.08 91.83 110.08 95.32 115.07 95.32 118.56 95.32 123.54 95.32 123.54 91.83 118.56 91.83 118.56 78.53 123.54 78.53"/></g></g></svg>