<?xml version="1.0" encoding="UTF-8"?><svg xmlns="http://www.w3.org/2000/svg" viewBox="0 0 222 222"><defs><style>.cls-1{fill:#323230;}.cls-2{fill:#d3d3d3;}</style></defs><g id="base"><rect class="cls-2" x="12.5" y="12.5" width="197" height="197" rx="6.54" ry="6.54"/><path d="M202.96,16c1.67,0,3.04,1.36,3.04,3.04v183.93c0,1.67-1.36,3.04-3.04,3.04H19.04c-1.67,0-3.04-1.36-3.04-3.04V19.04c0-1.67,1.36-3.04,3.04-3.04h183.93M202.96,9H19.04c-5.54,0-10.04,4.49-10.04,10.04v183.93c0,5.54,4.49,10.04,10.04,10.04h183.93c5.54,0,10.04-4.49,10.04-10.04V19.04c0-5.54-4.49-10.04-10.04-10.04h0Z"/></g><g id="icon"><rect class="cls-1" x="54" y="147" width="102" height="36"/><rect class="cls-1" x="49" y="111" width="115" height="27"/><g id="_上"><polygon class="cls-1" points="175.18 29.09 154.86 63.59 174.52 63.59 195.51 63.59 175.18 29.09"/><polygon class="cls-1" points="195.73 98.09 174.52 63.59 153.32 98.09 195.73 98.09"/></g><path class="cls-1" d="M148.9,58.9l-18.9-18.9-.1,26.99,19.2-.07c-1.38-2.33-1.62-5.32-.21-8.03Z"/><path class="cls-1" d="M146.95,93.05l11.05-17.97v-.08h-38v-35H54v62h95.03c-2.85-1.8-4.07-5.72-2.08-8.95Z"/></g></svg>