<?xml version="1.0" encoding="UTF-8"?><svg xmlns="http://www.w3.org/2000/svg" viewBox="0 0 1086 1086"><defs><style>.cls-1{fill:none;stroke:#303030;stroke-miterlimit:10;stroke-width:24px;}.cls-2{fill:#aad746;}.cls-3{fill:#323230;}.cls-4{fill:#303030;}</style></defs><g id="base"><rect class="cls-2" x="42.97" y="43" width="1000" height="1000" rx="49.34" ry="49.34"/><path d="M993.78,77.31c8.2,0,14.88,6.67,14.88,14.88v901.62c0,8.2-6.67,14.88-14.88,14.88H92.16c-8.2,0-14.88-6.67-14.88-14.88V92.19c0-8.2,6.67-14.88,14.88-14.88h901.62M993.78,43H92.16c-27.17,0-49.19,22.02-49.19,49.19v901.62c0,27.17,22.02,49.19,49.19,49.19h901.62c27.17,0,49.19-22.02,49.19-49.19V92.19c0-27.17-22.02-49.19-49.19-49.19h0Z"/></g><g id="icon"><circle class="cls-1" cx="523.5" cy="557" r="102"/><polygon class="cls-3" points="839.53 220 749.96 372.03 836.62 372.03 929.09 372.03 839.53 220"/><polygon class="cls-3" points="930.06 524.05 836.62 372.03 743.19 524.05 930.06 524.05"/><path class="cls-4" d="M239.47,266.07s27.5-.16,66,0c47.34.2,110.16,3.37,145.1,38.31,63.35,63.35,57.77,143.79,9.89,191.67-47.88,47.88-119.93,45.06-183.28-18.29-35.29-35.29-37.83-97-37.71-144.7.1-37.94,0-67,0-67Z"/><path class="cls-4" d="M239.63,850s-.16-27.5,0-66c.2-47.34,3.37-110.16,38.31-145.1,63.35-63.35,143.79-57.77,191.67-9.89,47.88,47.88,45.06,119.93-18.29,183.28-35.29,35.29-97,37.83-144.7,37.71-37.94-.1-67,0-67,0Z"/><path class="cls-4" d="M810,850s-27.51.16-66,0c-47.34-.2-110.17-3.37-145.11-38.31-63.35-63.35-57.77-143.8-9.89-191.69,47.88-47.88,119.93-45.07,183.29,18.29,35.29,35.29,37.84,97.01,37.71,144.71-.1,37.94,0,67,0,67Z"/><path class="cls-4" d="M745.34,421c-36.67,0-59.45-39.86-40.83-71.45l49.19-83.49c-3.52,0-7.14-.01-10.85-.02-47.71-.12-109.42,2.42-144.71,37.71-63.35,63.35-66.17,135.4-18.29,183.29,28.42,28.42,68.32,41.94,109.31,34.98l62.09-101.02h-5.9Z"/></g></svg>