<?xml version="1.0" encoding="UTF-8"?><svg xmlns="http://www.w3.org/2000/svg" viewBox="0 0 221.07 223.32"><defs><style>.uuid-474c4aae-9475-4c94-b8e5-f884243efd8f{fill:#303030;}.uuid-1b9bf0e8-2ea9-4f40-b78c-d70a26f2410e{fill:#d3d3d3;}</style></defs><g id="uuid-2a87149a-c3e5-40ba-bc24-7f717dddcdd6"><rect class="uuid-1b9bf0e8-2ea9-4f40-b78c-d70a26f2410e" x="12.04" y="11.77" width="197" height="197" rx="6.54" ry="6.54"/><path d="M202.5,15.27c1.67,0,3.04,1.36,3.04,3.04v183.93c0,1.67-1.36,3.04-3.04,3.04H18.58c-1.67,0-3.04-1.36-3.04-3.04V18.31c0-1.67,1.36-3.04,3.04-3.04h183.93M202.5,8.27H18.58c-5.55,0-10.04,4.49-10.04,10.04v183.93c0,5.54,4.49,10.04,10.04,10.04h183.93c5.54,0,10.04-4.49,10.04-10.04V18.31c0-5.54-4.49-10.04-10.04-10.04h0Z"/></g><g id="uuid-4fed637b-0535-4391-a434-66d6dddc602b"><path class="uuid-474c4aae-9475-4c94-b8e5-f884243efd8f" d="M193.6,97.58h-30.06v19.15h12.35c-1.99,34.61-30.77,62.16-65.87,62.16s-65.99-29.6-65.99-65.99c0-32.98,24.32-60.39,55.96-65.23v10.92h19.15v-30.19c-3-.32-6.04-.5-9.13-.5-46.87,0-84.99,38.13-84.99,84.99s38.13,84.99,84.99,84.99,84.99-38.13,84.99-84.99c0-5.23-.5-10.35-1.41-15.32Z"/></g><g id="uuid-d4e14697-9165-47fb-94d8-f55914284e69"><rect class="uuid-474c4aae-9475-4c94-b8e5-f884243efd8f" x="78.9" y="126.2" width="62.42" height="66.25" rx="20.85" ry="20.85"/><ellipse class="uuid-474c4aae-9475-4c94-b8e5-f884243efd8f" cx="110.11" cy="97.58" rx="24.32" ry="23.46"/><polygon class="uuid-474c4aae-9475-4c94-b8e5-f884243efd8f" points="190.13 52.9 167.99 52.9 167.99 30.85 154.75 30.85 154.75 52.9 132.58 52.9 132.58 66.34 154.75 66.34 154.75 88.56 167.99 88.56 167.99 66.34 190.13 66.34 190.13 52.9"/></g></svg>