<?xml version="1.0" encoding="UTF-8"?><svg xmlns="http://www.w3.org/2000/svg" viewBox="0 0 221 221"><defs><style>.cls-1{fill:#323230;}.cls-2{fill:#d3d3d3;}</style></defs><g id="base"><rect class="cls-2" x="12.5" y="7.5" width="197" height="197" rx="6.54" ry="6.54"/><path d="M202.96,11c1.67,0,3.04,1.36,3.04,3.04v183.93c0,1.67-1.36,3.04-3.04,3.04H19.04c-1.67,0-3.04-1.36-3.04-3.04V14.04c0-1.67,1.36-3.04,3.04-3.04h183.93M202.96,4H19.04c-5.54,0-10.04,4.49-10.04,10.04v183.93c0,5.54,4.49,10.04,10.04,10.04h183.93c5.54,0,10.04-4.49,10.04-10.04V14.04c0-5.54-4.49-10.04-10.04-10.04h0Z"/></g><g id="icon"><rect class="cls-1" x="48" y="174" width="116" height="10"/><polygon class="cls-1" points="48 164 75 164 75 155 48 128.93 48 164"/><polygon class="cls-1" points="84 155 84 164 106 164 106 133 84 155"/><rect class="cls-1" x="59.69" y="106.24" width="35.6" height="34.18" transform="translate(109.91 -18.67) rotate(45)"/><polygon class="cls-1" points="92.57 75 92.57 88.31 114.41 110.15 114.41 110.16 114.43 110.16 114.43 164 123.57 164 123.57 106 92.57 75"/><polygon class="cls-1" points="167.53 31 149.27 62 166.94 62 185.8 62 167.53 31"/><polygon class="cls-1" points="167.33 62 149.07 93 166.74 93 185.6 93 167.33 62"/><path class="cls-1" d="M161.22,99.8h-14.77c-3.73,0-6.06-4.03-4.23-7.26l-10.22,10.22v61.24h32v-64.2h-2.78Z"/><path class="cls-1" d="M140,62c0-3.89,2.22-7.25,5.46-8.9l-21.28-21.28-29.52,29.52,30.74,30.74,20.82-20.82c-3.65-1.49-6.22-5.07-6.22-9.26Z"/></g></svg>