<?xml version="1.0" encoding="UTF-8"?><svg xmlns="http://www.w3.org/2000/svg" viewBox="0 0 222 222"><defs><style>.uuid-378d465b-890d-431b-8cc9-1b40947644a6{fill:#323230;}.uuid-f77eb2f7-1d3a-4b69-b030-13f2e54c2e7d{fill:#d3d3d3;}</style></defs><g id="uuid-0e759c37-692b-4e93-9d92-4f973ac24f33"><rect class="uuid-f77eb2f7-1d3a-4b69-b030-13f2e54c2e7d" x="12.5" y="12" width="197" height="197" rx="6.54" ry="6.54"/><path d="M202.96,15.5c1.67,0,3.04,1.36,3.04,3.04v183.93c0,1.67-1.36,3.04-3.04,3.04H19.04c-1.67,0-3.04-1.36-3.04-3.04V18.54c0-1.67,1.36-3.04,3.04-3.04h183.93M202.96,8.5H19.04c-5.54,0-10.04,4.49-10.04,10.04v183.93c0,5.54,4.49,10.04,10.04,10.04h183.93c5.54,0,10.04-4.49,10.04-10.04V18.54c0-5.54-4.49-10.04-10.04-10.04h0Z"/></g><g id="uuid-09f2dd7c-a570-45ba-b112-6470c81fffea"><polygon class="uuid-378d465b-890d-431b-8cc9-1b40947644a6" points="169.46 45.5 149.13 80 168.8 80 189.78 80 169.46 45.5"/><polygon class="uuid-378d465b-890d-431b-8cc9-1b40947644a6" points="190 114.5 168.8 80 147.6 114.5 190 114.5"/><path class="uuid-378d465b-890d-431b-8cc9-1b40947644a6" d="M53.62,147.59c-2.8-4.06,13.22-19.94,35.78-35.47,22.56-15.53,43.11-24.82,45.91-20.76.64.92.3,2.46-.88,4.47-.83,1.43.84,3,2.21,2.07l5.24-3.57c.68-.46.89-1.38.46-2.08-.54-.89-1.11-1.76-1.71-2.63-17.15-24.52-52.26-31.18-78.42-14.89-26.16,16.29-33.47,49.37-16.33,73.89,1.28,1.83,3.75,4.64,5.08,6.13.52.58,1.39.68,2.03.24l5.4-3.69c1.33-.9.58-3.02-1.01-2.84-1.89.22-3.19-.06-3.75-.88Z"/><path class="uuid-378d465b-890d-431b-8cc9-1b40947644a6" d="M167.38,120.67c-.28-.7-.95-1.17-1.71-1.17h-20.86c-1.01,0-1.82-.82-1.82-1.82v-4.16c0-1.19-1.13-2.07-2.29-1.77-4.8,1.25-9.52,3.34-13.51,5.9-2.39,1.53-2.64,4.92-.47,6.75,2.7,2.28,6.52,5.49,10.62,8.95-4.31,6.01-9.12,11.67-14.4,16.85-1.14,1.12-2.79.48-3.43-.98-3.41-7.79-5.11-16.75-8.53-24.72-.06-.13-.12-.26-.19-.4-.29-1.11-1.68-3.22-3.64-5.41-.85-.96-2.49-2.49-2.49-2.49,0,0-2.64-2.3-3.69-2.7-1.35-.51-5.96-1.52-7-1-5.46,2.75-4.63,6.06-.06,13.49,1.25,2.03,1.55,3.73,2.49,5.45,2.03,3.66,2.37,8.77,3.56,13.06-.22,7.94-.1,14.34-2.48,19.72-2.22,5-5.27,9.56-8.38,14.06-.93,1.35.02,3.2,1.67,3.2l36.39.14c1.04,0,1.93-.78,2.04-1.81.42-3.93-.07-7.96.37-11.91.65-5.81,3.32-11.24,6.77-15.95,2.94-4,6.45-7.54,10.03-10.99,4.33,3.65,8.34,7.03,11.08,9.34,2.03,1.71,5.11,1.13,6.38-1.21,4.72-8.67,6.85-20.22,3.51-28.42Z"/></g></svg>